<svg width="256" height="299" viewBox="0 0 256 299" fill="none" xmlns="http://www.w3.org/2000/svg">
<path d="M13 85V232H43V182H77C113.4 182 135.4 166.2 135.4 133.4C135.4 100.6 113.4 85 77 85H13ZM73.4 109C94.8 109 105.4 115.4 105.4 133.4C105.4 151.4 94.8 158 73.4 158H43V109H73.4ZM224.03 128C217.63 124.2 205.23 122.2 195.83 123.4C186.83 124.6 177.23 130 172.63 138.8V126H145.43V232H175.83V156.8C179.23 152 185.83 148.6 191.83 147.6C201.43 146 210.03 147.8 217.23 150.8L224.03 128Z" fill="black"/>
<circle cx="240.5" cy="105.5" r="15.5" fill="#FFC107"/>
</svg>
